<svg width="73" height="80" viewBox="0 0 73 80" fill="none" xmlns="http://www.w3.org/2000/svg">
<path d="M67.7 18.7L39.8 2.9C38.8 2.3 37.6 2 36.5 2C35.4 2 34.2 2.3 33.2 2.9L5.3 18.7C3.2 19.9 2 22 2 24.3V55.8C2 58.1 3.3 60.3 5.3 61.4L33.2 77.1C34.2 77.7 35.4 78 36.5 78C37.6 78 38.8 77.7 39.8 77.1L67.7 61.4C69.8 60.2 71 58.1 71 55.8V24.3C71 22 69.8 19.8 67.7 18.7Z" stroke="url(#paint0_linear)" stroke-width="3" stroke-miterlimit="10"/>
<path d="M51.8001 51.8V58H16.1001V28.2H22.5001" stroke="url(#paint1_linear)" stroke-width="3" stroke-miterlimit="10"/>
<path d="M58.3 22H22.5V51.8H58.3V22Z" stroke="url(#paint2_linear)" stroke-width="3" stroke-miterlimit="10"/>
<path d="M22.5 22.1V28.2H58.3V22.1H22.5ZM45.8 25.5H42.2V23.7H45.8V25.5ZM51 25.5H47.5V23.7H51.1V25.5H51ZM56.3 25.5H52.7V23.7H56.3V25.5Z" fill="url(#paint3_linear)"/>
<defs>
<linearGradient id="paint0_linear" x1="9.0116" y1="67.5314" x2="64.0343" y2="12.5088" gradientUnits="userSpaceOnUse">
<stop stop-color="#DF19C2"/>
<stop offset="1" stop-color="#F7273C"/>
</linearGradient>
<linearGradient id="paint1_linear" x1="16.0557" y1="61.009" x2="39.2771" y2="37.7876" gradientUnits="userSpaceOnUse">
<stop stop-color="#DF19C2"/>
<stop offset="1" stop-color="#F7273C"/>
</linearGradient>
<linearGradient id="paint2_linear" x1="22.463" y1="54.8225" x2="58.2554" y2="19.0301" gradientUnits="userSpaceOnUse">
<stop stop-color="#DF19C2"/>
<stop offset="1" stop-color="#F7273C"/>
</linearGradient>
<linearGradient id="paint3_linear" x1="22.4808" y1="25.1688" x2="58.2377" y2="25.1688" gradientUnits="userSpaceOnUse">
<stop stop-color="#DF19C2"/>
<stop offset="1" stop-color="#F7273C"/>
</linearGradient>
</defs>
</svg>
